<svg data-v-0dd9719b="" version="1.0" xmlns="http://www.w3.org/2000/svg" xmlns:xlink="http://www.w3.org/1999/xlink" width="100%" height="100%" viewBox="0 0 340.000000 250.000000" preserveAspectRatio="xMidYMid meet" color-interpolation-filters="sRGB" style="margin: auto;"> <rect data-v-0dd9719b="" x="0" y="0" width="100%" height="100%" fill="#ffffff" fill-opacity="1" class="background"></rect> <rect data-v-0dd9719b="" x="0" y="0" width="100%" height="100%" fill="url(#watermark)" fill-opacity="1" class="watermarklayer"></rect> <g data-v-0dd9719b="" fill="#333333" class="icon-text-wrapper icon-svg-group iconsvg" transform="translate(54.73500061035156,95.95499994204022)"><g class="iconsvg-imagesvg" transform="translate(0,0)"><g><rect fill="#333333" fill-opacity="0" stroke-width="2" x="0" y="0" width="60" height="58.090000774533344" class="image-rect"></rect> <svg filter="url(#colors7879647129)" x="0" y="0" width="60" height="58.090000774533344" filtersec="colorsf6808259739" class="image-svg-svg primary" style="overflow: visible;"><svg xmlns="http://www.w3.org/2000/svg" viewBox="1.2300012111663818 0.4742662310600281 97.53001403808594 94.42574310302734"><title></title><path fill="#0C0C0C" d="M18.62 27.09l.17-.07.38-.17.79-.34 1.6-.76c1.06-.5 2.1-1.02 3.1-1.55 2.01-1.06 3.89-2.13 5.67-3.19 3.55-2.11 6.68-4.11 9.58-5.75 5.79-3.31 10.83-5.05 15.93-4.74 1.28.06 2.55.24 3.8.52.63.13 1.22.32 1.9.5.68.18 1.22.39 1.89.65.67.26 1.22.5 1.89.77l.94.44.46.22.48.24c1.22.63 2.44 1.35 3.73 2.11 2.53 1.6 4.97 3.33 7.31 5.2l.9.72c.3.23.6.49.9.73l.89.73.89.76.45.38.44.39.88.77c.62.55 1.22 1.08 1.9 1.62 2.68 2.2 5.62 4.06 8.75 5.56.39.21.8.39 1.22.56l1.22.54.56.21c-.5-1.94-1.11-3.86-1.84-5.73-2.24-1.35-4.35-2.9-6.31-4.63-.58-.54-1.22-1.07-1.74-1.62l-.93-.87-.41-.4-.46-.43-.93-.88-.95-.85-.94-.87-.95-.87c-2.56-2.29-5.22-4.53-7.93-6.67-1.37-1.05-2.73-2.08-4.12-3.03l-.52-.37-.52-.34-1.08-.68c-.69-.44-1.4-.89-2.1-1.22-.69-.33-1.41-.87-2.11-1.23s-1.4-.7-2.1-.99c-1.35-.59-2.75-1.07-4.18-1.43-5.56-1.4-10.7-.19-15.77 4.03a73.301 73.301 0 0 0-8.03 8.12c-1.45 1.62-2.99 3.36-4.66 5.18-.84.9-1.72 1.83-2.66 2.77-.46.48-.94.95-1.45 1.44l-.78.74-.41.39-.22.21-.12.11-.16.15c-1.21 1.29-2.69 2.3-4.33 2.96l.09-.04z"></path><path fill="#0C0C0C" d="M27.54 27.14c8.43-1.9 15.19-3.16 21.34-2.79 1.5.08 3 .25 4.49.51.73.12 1.44.29 2.17.45.73.16 1.43.37 2.12.6.69.23 1.39.46 2.08.72l1.02.4.51.21.5.23c1.36.58 2.68 1.29 4.01 2.02 2.7 1.57 5.28 3.34 7.71 5.3l.94.77c.32.24.62.52.94.78l.94.8.93.83.48.43.46.43.93.87 2.02 1.83c2.94 2.53 6.22 4.63 9.75 6.24.45.22.93.4 1.39.6l1.43.55 1.46.49.73.23.76.21 1.51.39.44.09c.16-1.4.16-2.75.16-4.16v-1.55l-.65-.24-1.22-.51-1.22-.56c-.4-.19-.82-.38-1.22-.6-3.08-1.6-5.94-3.61-8.49-5.97-.61-.57-1.22-1.15-1.79-1.73l-.93-.91-.46-.45-.46-.45-.94-.89c-.3-.3-.62-.59-.94-.88l-.94-.78-.95-.84c-2.48-2.19-5.1-4.22-7.82-6.09-1.35-.9-2.69-1.77-4.08-2.52l-.51-.29-.52-.28-1.05-.54c-.69-.33-1.39-.67-2.11-.96-.72-.29-1.47-.66-2.13-.91-.66-.26-1.44-.49-2.16-.67-1.45-.41-2.92-.7-4.41-.88-5.98-.73-12.19.73-19.57 3.88-3.74 1.58-7.81 3.47-12.54 5.44-2.38.98-4.88 1.96-7.68 2.9-1.38.46-2.82.91-4.34 1.34-.77.22-1.55.43-2.36.63l-.91.22c2.44-.29 4.79-.63 7.07-1.02 5.22-.93 9.89-1.99 14.11-2.92z"></path><path fill="#0C0C0C" d="M9.6 35.78c11.09-.09 19.96-.3 27.64.83 1.93.27 3.75.62 5.55 1.05.9.21 1.76.46 2.63.71.88.24 1.72.52 2.54.84.82.32 1.66.62 2.44.95l1.22.52.61.27.58.29c1.6.76 3.11 1.63 4.63 2.55 3.1 1.94 6.04 4.14 8.78 6.57l1.07.95c.37.32.71.66 1.06.99l1.07 1 1.05 1.05.53.5.52.55 1.06 1.08c.74.77 1.52 1.54 2.3 2.3a41.43 41.43 0 0 0 11.43 7.57c.54.24 1.1.46 1.66.67s1.12.41 1.69.62l1.74.52.88.24.9.21c1.23-2.3 2.27-4.7 3.12-7.17l-.5-.14-.71-.21-1.49-.56-1.47-.66c-.48-.22-.95-.44-1.4-.68a38.976 38.976 0 0 1-9.58-7.09c-.68-.71-1.34-1.41-1.99-2.12l-1.01-1.11-.5-.56-.51-.62-1.01-1.07c-.34-.35-.69-.69-1.02-1.05s-.67-.69-1.02-1.02l-1.04-.99a70.243 70.243 0 0 0-8.42-6.98 55.978 55.978 0 0 0-4.47-2.82l-.56-.32-.57-.3c-.39-.19-.77-.4-1.16-.58-.79-.38-1.56-.74-2.36-1.07s-1.61-.63-2.44-.94c-.83-.3-1.63-.55-2.44-.77-1.7-.49-3.44-.86-5.19-1.11-7.15-1.11-15.15-.34-25.31 1.02-4.61.6-9.65 1.22-15.34 1.72H5l.35-.07.65-.17.35-.09-1.22.15-1.53.16h.76-.78c-.44 1.4-.82 2.82-1.13 4.27 2.45.11 4.83.15 7.15.12zM50 94.9c2.58 0 5.16-.2 7.7-.61l-.49-.68c-.23-.32-.45-.63-.68-.94l-.69-.93c-.46-.61-.91-1.22-1.37-1.84-.45-.62-.93-1.22-1.39-1.78s-.9-1.22-1.36-1.77-.94-1.13-1.39-1.71a120.89 120.89 0 0 0-11.43-12.3c-2-1.8-4-3.56-6.09-5.16l-.78-.61-.84-.62c-.55-.38-1.07-.77-1.62-1.22-1.11-.73-2.19-1.49-3.34-2.17-1.15-.68-2.3-1.36-3.46-2.04s-2.36-1.29-3.66-1.88a90.9 90.9 0 0 0-7.71-3.4 144.5 144.5 0 0 0-9.85-3.46C4.41 76.39 25.25 94.92 50 94.9z"></path><path fill="#0C0C0C" d="M74.29 72.95c-.8-.89-1.57-1.8-2.35-2.72-.4-.48-.79-.96-1.22-1.44l-.59-.72-.61-.69-1.12-1.41c-.39-.45-.8-.89-1.22-1.34-.41-.45-.78-.89-1.22-1.32l-1.22-1.29a87.39 87.39 0 0 0-9.84-9.1c-1.71-1.32-3.42-2.58-5.23-3.72l-.67-.43-.68-.4-1.37-.82c-.94-.5-1.85-1.02-2.82-1.47-.96-.45-1.93-.91-2.9-1.35s-1.99-.83-3.01-1.22a66.77 66.77 0 0 0-6.33-1.91c-8.32-2.18-17.98-2.95-29.92-4-.49 2.82-.74 5.67-.74 8.53v1.68c6.46.9 12.87 2.12 19.21 3.66 2.44.61 4.69 1.3 6.91 2.05 1.11.37 2.17.78 3.25 1.22s2.12.85 3.13 1.33c1.01.48 2.02.95 3.02 1.43l1.47.78.78.39.72.41c1.94 1.07 3.78 2.29 5.62 3.56 3.73 2.66 7.25 5.6 10.53 8.8l1.22 1.22c.44.41.84.87 1.22 1.29s.87.87 1.28 1.32l1.22 1.37.63.67c.22.23.43.48.63.71.41.48.84.94 1.22 1.41.91 1 1.84 1.99 2.79 2.97 2.35 2.31 4.95 4.35 7.74 6.09A49.53 49.53 0 0 0 84 80.8c-3.6-2.11-6.89-4.75-9.71-7.85zM18.53 27.13z"></path></svg></svg> <defs><filter id="colors7879647129"><feColorMatrix type="matrix" values="0 0 0 0 0.4609375  0 0 0 0 0.69921875  0 0 0 0 0.61328125  0 0 0 1 0" class="icon-fecolormatrix"></feColorMatrix></filter> <filter id="colorsf6808259739"><feColorMatrix type="matrix" values="0 0 0 0 0.99609375  0 0 0 0 0.99609375  0 0 0 0 0.99609375  0 0 0 1 0" class="icon-fecolormatrix"></feColorMatrix></filter> <filter id="colorsb4551169962"><feColorMatrix type="matrix" values="0 0 0 0 0  0 0 0 0 0  0 0 0 0 0  0 0 0 1 0" class="icon-fecolormatrix"></feColorMatrix></filter></defs></g></g> <g transform="translate(67,5.348749160766602)"><g data-gra="path-name" fill-rule="" class="tp-name iconsvg-namesvg" transform="translate(0,0)"><g transform="scale(1)"><g><path d="M9.76-31.14L38.84-31.14 38.25-26.86 28.35-26.86 23.85-20.02 40.27-20.02 39.64-15.75 32.63-15.75 38.7 0.4 29.29 0.4 23.22-15.75 21.06-15.75 10.48 0.4 1.08 0.4 11.65-15.75 4.63-15.75 5.26-20.02 14.45-20.02 18.95-26.86 9.18-26.86 9.76-31.14ZM60.88 0.36L61.24-2.21 52.96-2.21 53.55-6.48 61.83-6.48 62.05-8.05 54.72-8.05 55.3-12.33 62.69-12.33 62.91-13.9 55.57-13.9 56.16-18.18 63.49-18.18 63.72-19.75 55.53-19.75 56.16-24.03 64.35-24.03 64.58-25.61 58.19-25.61 58.77-29.88 65.16-29.88 65.2-30.2 64.39-32.04 73.26-32.04 72.94-29.88 81.58-29.88 80.78-24.03 82.62-24.03 81.99-19.75 80.14-19.75 79.33-13.9 70.69-13.9 70.47-12.33 79.11-12.33 78.53-8.05 69.84-8.05 69.61-6.48 79.2-6.48 78.61-2.21 69.03-2.21 68.67 0.36 60.88 0.36ZM49.14 0.4L41.53 0.4 45.85-12.33 53.46-12.33 49.14 0.4ZM53.73-14.04L46.13-14.04 45.54-21.73 53.14-21.73 53.73-14.04ZM55.03-23.45L47.43-23.45 46.84-31.14 54.45-31.14 55.03-23.45ZM74.16-25.61L71.78-25.61 71.55-24.03 73.94-24.03 74.16-25.61ZM70.69-18.18L73.08-18.18 73.3-19.75 70.92-19.75 70.69-18.18ZM85.09-14.49L121-14.49 119.34-2.56Q119.11-1.26 118.1-0.43 117.09 0.4 115.83 0.4L115.83 0.4 107.77 0.4 110.83-2.92 111.96-11.07 93.15-11.07 91.53 0.4 82.98 0.4 85.09-14.49ZM91.08-23.85L117.58-23.85 116.46-15.75 89.95-15.75 91.08-23.85ZM86.35-29.43L100.84-29.43 100.98-30.29 99.54-31.99 109.8-31.99 109.39-29.43 123.97-29.43 123.34-25.15 85.72-25.15 86.35-29.43ZM95.08-9.76L109.66-9.76 108.67-2.52 94.09-2.52 95.08-9.76ZM99.05-19.17L108.41-19.17 108.58-20.47 99.22-20.47 99.05-19.17ZM100.08-5.49L103.5-5.49 103.68-6.79 100.26-6.79 100.08-5.49ZM150.12 0.36L154.13-3.78 157.23-26.01 138.1-26.01 138.73-30.29 164.61-30.29 160.69-2.56Q160.51-1.26 159.5-0.45 158.49 0.36 157.23 0.36L157.23 0.36 150.12 0.36ZM153.99-12.64L149.71-12.64 145.21-15.07 139.86-12.64 135.09-12.64 135.58-15.93 137.88-15.93 141.21-17.23 140.67-17.55 135.76-17.55 139.81-24.61 144.76-24.61 144.22-23.71 155.2-23.71 154.57-19.26 149.76-17.1 152.05-15.93 154.48-15.93 153.99-12.64ZM128.61-24.16L135.36-24.16 131.94 0.36 125.19 0.36 128.61-24.16ZM135.9-11.74L153-11.74 151.65-2.16 134.55-2.16 135.9-11.74ZM129.33-31.18L136.08-31.18 136.13-25.47 129.38-25.47 129.33-31.18ZM140.49-5.71L146.7-5.71 147.06-8.19 140.85-8.19 140.49-5.71ZM149.4-20.43L143.14-20.43 145.89-19.04 149.4-20.43Z" transform="translate(-1.0800000429153442, 32.040000915527344)"></path></g> <!----> <!----> <!----> <!----> <!----> <!----> <!----></g></g> <g data-gra="path-slogan" fill-rule="" class="tp-slogan iconsvg-slogansvg" fill="#333333" transform="translate(35.970001220703125,38.44000244140625)"><!----> <!----> <g transform="scale(1, 1)"><g transform="scale(1)"><path d="M3.09-7.59L0.19-7.59L0.19-8.58L7.13-8.58L7.13-7.59L4.22-7.59L4.22 0L3.09 0L3.09-7.59ZM8.34-8.58L9.52-8.58L9.52 0L8.34 0L8.34-8.58ZM17.16 0L16.31-2.48L12.84-2.48L11.95 0L10.78 0L14.02-8.58L15.33-8.58L18.42 0L17.16 0ZM14.58-7.31L13.22-3.52L15.89-3.52L14.63-7.31L14.58-7.31ZM20.86-8.58L25.17-1.64L25.17-8.58L26.30-8.58L26.30 0L24.98 0L20.63-6.94L20.58-6.94L20.58 0L19.45 0L19.45-8.58L20.86-8.58ZM27.38-1.92L27.38-2.77L28.45-2.77L28.45-2.16Q28.45-0.75 29.77-0.75L29.77-0.75Q31.13-0.75 31.13-2.25L31.13-2.25L31.13-8.58L32.30-8.58L32.30-2.30Q32.25 0.09 29.81 0.14L29.81 0.14Q27.52 0.09 27.38-1.92L27.38-1.92ZM34.27-8.58L35.44-8.58L35.44 0L34.27 0L34.27-8.58ZM38.81-8.58L43.13-1.64L43.13-8.58L44.25-8.58L44.25 0L42.94 0L38.58-6.94L38.53-6.94L38.53 0L37.41 0L37.41-8.58L38.81-8.58ZM55.78-3.61L53.16-3.61L53.16-4.59L56.91-4.59L56.91 0L56.16 0L55.88-1.08Q54.89 0.09 53.06 0.14L53.06 0.14Q51.33 0.14 50.39-0.75L50.39-0.75Q48.98-2.06 49.03-4.36L49.03-4.36Q49.36-8.63 53.11-8.81L53.11-8.81Q56.30-8.63 56.77-6L56.77-6L55.64-6Q55.17-7.78 53.06-7.83L53.06-7.83Q50.39-7.64 50.25-4.31L50.25-4.31Q50.25-0.75 53.11-0.75L53.11-0.75Q54.14-0.75 54.89-1.31L54.89-1.31Q55.83-2.06 55.78-3.61L55.78-3.61ZM64.36 0L63.52-2.48L60.05-2.48L59.16 0L57.98 0L61.22-8.58L62.53-8.58L65.63 0L64.36 0ZM61.78-7.31L60.42-3.52L63.09-3.52L61.83-7.31L61.78-7.31ZM73.45-4.27L73.45-4.27Q73.27-7.64 70.45-7.83L70.45-7.83Q67.59-7.69 67.45-4.27L67.45-4.27Q67.59-0.94 70.45-0.80L70.45-0.80Q73.27-0.98 73.45-4.27ZM74.63-4.27L74.63-4.27Q74.34 0 70.45 0.14L70.45 0.14Q66.52 0 66.23-4.27L66.23-4.27Q66.47-8.72 70.45-8.81L70.45-8.81Q74.34-8.67 74.63-4.27ZM82.41-3.61L79.78-3.61L79.78-4.59L83.53-4.59L83.53 0L82.78 0L82.50-1.08Q81.52 0.09 79.69 0.14L79.69 0.14Q77.95 0.14 77.02-0.75L77.02-0.75Q75.61-2.06 75.66-4.36L75.66-4.36Q75.98-8.63 79.73-8.81L79.73-8.81Q82.92-8.63 83.39-6L83.39-6L82.27-6Q81.80-7.78 79.69-7.83L79.69-7.83Q77.02-7.64 76.88-4.31L76.88-4.31Q76.88-0.75 79.73-0.75L79.73-0.75Q80.77-0.75 81.52-1.31L81.52-1.31Q82.45-2.06 82.41-3.61L82.41-3.61ZM86.63-1.03L91.78-1.03L91.78 0L85.45 0L85.45-8.58L91.69-8.58L91.69-7.59L86.63-7.59L86.63-4.92L91.31-4.92L91.31-3.89L86.63-3.89L86.63-1.03Z" transform="translate(-0.1875, 8.8125)"></path></g></g></g></g></g><defs v-gra="od"></defs></svg>